<mxfile host="65bd71144e">
    <diagram id="JQseTl6dG7P3K3GRAhaQ" name="Page-1">
        <mxGraphModel dx="945" dy="541" grid="1" gridSize="10" guides="1" tooltips="1" connect="1" arrows="1" fold="1" page="1" pageScale="1" pageWidth="850" pageHeight="1100" background="none" math="0" shadow="0">
            <root>
                <mxCell id="0"/>
                <mxCell id="1" parent="0"/>
                <mxCell id="21" value="" style="swimlane;whiteSpace=wrap;html=1;labelBackgroundColor=#FFFFFF;" vertex="1" parent="1">
                    <mxGeometry x="80" y="140" width="750" height="1270" as="geometry"/>
                </mxCell>
                <mxCell id="22" value="" style="rounded=0;whiteSpace=wrap;html=1;labelBackgroundColor=#1A1A1A;" vertex="1" parent="21">
                    <mxGeometry y="20" width="750" height="40" as="geometry"/>
                </mxCell>
                <mxCell id="23" value="" style="rounded=0;whiteSpace=wrap;html=1;labelBackgroundColor=#1A1A1A;" vertex="1" parent="21">
                    <mxGeometry x="700" y="25" width="40" height="30" as="geometry"/>
                </mxCell>
                <mxCell id="24" value="" style="endArrow=none;html=1;" edge="1" parent="21">
                    <mxGeometry width="50" height="50" relative="1" as="geometry">
                        <mxPoint x="710" y="32" as="sourcePoint"/>
                        <mxPoint x="730" y="32" as="targetPoint"/>
                    </mxGeometry>
                </mxCell>
                <mxCell id="25" value="" style="endArrow=none;html=1;" edge="1" parent="21">
                    <mxGeometry width="50" height="50" relative="1" as="geometry">
                        <mxPoint x="710" y="40" as="sourcePoint"/>
                        <mxPoint x="730" y="40" as="targetPoint"/>
                    </mxGeometry>
                </mxCell>
                <mxCell id="26" value="" style="endArrow=none;html=1;" edge="1" parent="21">
                    <mxGeometry width="50" height="50" relative="1" as="geometry">
                        <mxPoint x="710" y="50" as="sourcePoint"/>
                        <mxPoint x="730" y="50" as="targetPoint"/>
                    </mxGeometry>
                </mxCell>
                <mxCell id="27" value="Addie's Awesome Acai" style="text;html=1;strokeColor=none;fillColor=none;align=center;verticalAlign=middle;whiteSpace=wrap;rounded=0;labelBackgroundColor=#1A1A1A;" vertex="1" parent="21">
                    <mxGeometry y="30" width="170" height="20" as="geometry"/>
                </mxCell>
                <mxCell id="30" value="Featured Items" style="rounded=0;whiteSpace=wrap;html=1;labelBackgroundColor=#1A1A1A;" vertex="1" parent="21">
                    <mxGeometry x="10" y="70" width="720" height="130" as="geometry"/>
                </mxCell>
                <mxCell id="31" value="" style="rounded=0;whiteSpace=wrap;html=1;labelBackgroundColor=#1A1A1A;" vertex="1" parent="21">
                    <mxGeometry x="600" y="60" width="140" height="190" as="geometry"/>
                </mxCell>
                <mxCell id="33" value="Login" style="rounded=1;whiteSpace=wrap;html=1;labelBackgroundColor=#1A1A1A;" vertex="1" parent="21">
                    <mxGeometry x="610" y="210" width="50" height="30" as="geometry"/>
                </mxCell>
                <mxCell id="34" value="Sign Up" style="rounded=1;whiteSpace=wrap;html=1;labelBackgroundColor=#1A1A1A;" vertex="1" parent="21">
                    <mxGeometry x="680" y="210" width="50" height="30" as="geometry"/>
                </mxCell>
                <mxCell id="37" value="Menu" style="text;html=1;strokeColor=none;fillColor=none;align=center;verticalAlign=middle;whiteSpace=wrap;rounded=0;labelBackgroundColor=#1A1A1A;" vertex="1" parent="21">
                    <mxGeometry x="640" y="80" width="60" height="30" as="geometry"/>
                </mxCell>
                <mxCell id="38" value="About" style="text;html=1;strokeColor=none;fillColor=none;align=center;verticalAlign=middle;whiteSpace=wrap;rounded=0;labelBackgroundColor=#1A1A1A;" vertex="1" parent="21">
                    <mxGeometry x="640" y="110" width="60" height="30" as="geometry"/>
                </mxCell>
                <mxCell id="39" value="" style="endArrow=none;html=1;" edge="1" parent="21">
                    <mxGeometry width="50" height="50" relative="1" as="geometry">
                        <mxPoint x="635" y="110" as="sourcePoint"/>
                        <mxPoint x="705" y="110" as="targetPoint"/>
                    </mxGeometry>
                </mxCell>
                <mxCell id="40" value="" style="endArrow=none;html=1;" edge="1" parent="21">
                    <mxGeometry width="50" height="50" relative="1" as="geometry">
                        <mxPoint x="634.9999999999998" y="140" as="sourcePoint"/>
                        <mxPoint x="704.9999999999998" y="140" as="targetPoint"/>
                    </mxGeometry>
                </mxCell>
                <mxCell id="41" value="Locations" style="text;html=1;strokeColor=none;fillColor=none;align=center;verticalAlign=middle;whiteSpace=wrap;rounded=0;labelBackgroundColor=#1A1A1A;" vertex="1" parent="21">
                    <mxGeometry x="640" y="140" width="60" height="30" as="geometry"/>
                </mxCell>
                <mxCell id="42" value="" style="endArrow=none;html=1;" edge="1" parent="21">
                    <mxGeometry width="50" height="50" relative="1" as="geometry">
                        <mxPoint x="634.9999999999998" y="170" as="sourcePoint"/>
                        <mxPoint x="704.9999999999998" y="170" as="targetPoint"/>
                    </mxGeometry>
                </mxCell>
                <mxCell id="43" value="Online Order" style="text;html=1;strokeColor=none;fillColor=none;align=center;verticalAlign=middle;whiteSpace=wrap;rounded=0;labelBackgroundColor=#1A1A1A;" vertex="1" parent="21">
                    <mxGeometry x="630" y="170" width="80" height="30" as="geometry"/>
                </mxCell>
                <mxCell id="51" value="why healthy" style="rounded=0;whiteSpace=wrap;html=1;labelBackgroundColor=#1A1A1A;" vertex="1" parent="21">
                    <mxGeometry x="10" y="270" width="730" height="50" as="geometry"/>
                </mxCell>
                <mxCell id="58" value="" style="rounded=1;whiteSpace=wrap;html=1;labelBackgroundColor=#1A1A1A;" vertex="1" parent="21">
                    <mxGeometry x="105" y="340" width="230" height="190" as="geometry"/>
                </mxCell>
                <mxCell id="79" value="" style="rounded=1;whiteSpace=wrap;html=1;labelBackgroundColor=#1A1A1A;" vertex="1" parent="21">
                    <mxGeometry x="420" y="340" width="230" height="190" as="geometry"/>
                </mxCell>
                <mxCell id="80" value="How to enjoy" style="rounded=0;whiteSpace=wrap;html=1;labelBackgroundColor=#1A1A1A;" vertex="1" parent="21">
                    <mxGeometry x="20" y="550" width="720" height="50" as="geometry"/>
                </mxCell>
                <mxCell id="82" value="" style="rounded=1;whiteSpace=wrap;html=1;labelBackgroundColor=#1A1A1A;" vertex="1" parent="21">
                    <mxGeometry x="70" y="620" width="200" height="250" as="geometry"/>
                </mxCell>
                <mxCell id="83" value="&lt;h1&gt;Bowl&lt;/h1&gt;&lt;p&gt;Lorem ipsum dolor sit amet, consectetur adipisicing elit, sed do eiusmod tempor incididunt ut labore et dolore magna aliqua.&lt;/p&gt;" style="text;html=1;strokeColor=none;fillColor=none;spacing=5;spacingTop=-20;whiteSpace=wrap;overflow=hidden;rounded=0;labelBackgroundColor=#1A1A1A;" vertex="1" parent="21">
                    <mxGeometry x="75" y="710" width="190" height="120" as="geometry"/>
                </mxCell>
                <mxCell id="85" value="" style="rounded=1;whiteSpace=wrap;html=1;labelBackgroundColor=#1A1A1A;" vertex="1" parent="21">
                    <mxGeometry x="290" y="620" width="200" height="250" as="geometry"/>
                </mxCell>
                <mxCell id="86" value="&lt;h1&gt;Smoothie&lt;/h1&gt;&lt;p&gt;Lorem ipsum dolor sit amet, consectetur adipisicing elit, sed do eiusmod tempor incididunt ut labore et dolore magna aliqua.&lt;/p&gt;" style="text;html=1;strokeColor=none;fillColor=none;spacing=5;spacingTop=-20;whiteSpace=wrap;overflow=hidden;rounded=0;labelBackgroundColor=#1A1A1A;" vertex="1" parent="21">
                    <mxGeometry x="295" y="710" width="190" height="120" as="geometry"/>
                </mxCell>
                <mxCell id="87" value="" style="rounded=1;whiteSpace=wrap;html=1;labelBackgroundColor=#1A1A1A;" vertex="1" parent="21">
                    <mxGeometry x="510" y="620" width="200" height="250" as="geometry"/>
                </mxCell>
                <mxCell id="88" value="&lt;h1&gt;Popsicle&lt;/h1&gt;&lt;p&gt;Lorem ipsum dolor sit amet, consectetur adipisicing elit, sed do eiusmod tempor incididunt ut labore et dolore magna aliqua.&lt;/p&gt;" style="text;html=1;strokeColor=none;fillColor=none;spacing=5;spacingTop=-20;whiteSpace=wrap;overflow=hidden;rounded=0;labelBackgroundColor=#1A1A1A;" vertex="1" parent="21">
                    <mxGeometry x="515" y="710" width="190" height="120" as="geometry"/>
                </mxCell>
                <mxCell id="48" style="edgeStyle=none;html=1;" edge="1" parent="1" source="31">
                    <mxGeometry relative="1" as="geometry">
                        <mxPoint x="809.9999999999998" y="170" as="targetPoint"/>
                    </mxGeometry>
                </mxCell>
            </root>
        </mxGraphModel>
    </diagram>
</mxfile>